Coordinates
version=1
nRows=21
nColumns=33
inDegrees=yes

Units are S.I. units (second, meters, Newtons, ...)
Angles are in degrees.

endheader
time	ground_thorax_rot_x	ground_thorax_rot_y	ground_thorax_rot_z	ground_thorax_tx	ground_thorax_ty	ground_thorax_tz	clav_prot_r	clav_elev_r	scapula_abduction_r	scapula_elevation_r	scapula_upward_rot_r	scapula_winging_r	shoulder_elv_r	plane_of_elev_r	axial_rot_r	elbow_flexion_r	pro_sup_r	wrist_flex_r	wrist_dev_r	clav_prot_l	clav_elev_l	scapula_abduction_l	scapula_elevation_l	scapula_upward_rot_l	scapula_winging_l	shoulder_elv_l	plane_of_elev_l	axial_rot_l	elbow_flexion_l	pro_sup_l	wrist_flex_l	wrist_dev_l
      3.34000000	     37.99894114	      8.82306288	     13.33373011	   -200.49432165	    818.65457996	      0.29488982	     15.66844509	     37.90258366	     40.23590986	     45.00000000	    -45.00000000	   2073.05290496	  -2627.98889698	    147.40215102	   -121.04389595	   1104.80516601	    158.82864755	     12.62076015	      5.81776956	     10.65595113	    -45.00000000	    -38.79759324	     45.00000000	    -40.53052333	  -1702.43907814	  -2085.60461783	     22.90384934	    -24.36204420	   1807.76093395	     32.04107336	      5.54981201	    -23.02638409
      3.35000000	     38.06045747	      8.65808409	     13.17865791	   -198.74518565	    819.06498238	      0.33661905	     15.87644888	     38.01315170	     40.47081408	     45.00000000	    -45.00000000	   2072.97792249	  -2627.91714157	    147.22676428	   -121.59469215	   1104.79226723	    159.59950373	     12.53085913	      5.77262663	     10.60031223	    -45.00000000	    -39.08089365	     45.00000000	    -39.75429300	  -1702.52283104	  -2085.65942899	     22.94122452	    -24.18996608	   1807.72527671	     31.48178241	      5.69676042	    -23.01820636
      3.36000000	     38.10128849	      8.58291141	     13.09839683	   -196.90337773	    819.49687809	      0.39310478	     15.91230725	     38.03398250	     40.62904036	     45.00000000	    -45.00000000	   2072.98673759	  -2627.85517909	    147.10187754	   -122.20096055	   1104.79072382	    160.40860126	     12.42465746	      5.75341403	     10.62342862	    -45.00000000	    -39.29118404	     45.00000000	    -39.03718933	  -1702.59726200	  -2085.69643714	     22.99318655	    -24.05352085	   1807.76968611	     30.86603419	      5.87128507	    -23.02662551
      3.37000000	     38.11109602	      8.51935141	     13.14038664	   -194.96759212	    819.94003285	      0.46094111	     15.79947857	     37.96165143	     40.83217531	     45.00000000	    -45.00000000	   2073.02577493	  -2627.74872220	    146.99139841	   -122.87382113	   1104.76705220	    161.21658453	     12.31101351	      5.75354061	     10.67072555	    -45.00000000	    -39.42675733	     45.00000000	    -38.48027728	  -1702.62308029	  -2085.68752190	     23.05150533	    -23.89171337	   1807.82403878	     30.23622803	      6.06868527	    -23.03330387
      3.38000000	     38.14642542	      8.37311178	     12.94973901	   -192.93519884	    820.38169229	      0.53657541	     16.15204835	     38.16453638	     41.07332157	     45.00000000	    -45.00000000	   2073.00135583	  -2627.71493762	    146.86125447	   -123.39721426	   1104.81707384	    162.10529776	     12.19263485	      5.68578559	     10.50675509	    -45.00000000	    -39.74643130	     45.00000000	    -37.51939227	  -1702.72155725	  -2085.73069545	     23.05673585	    -23.61709500	   1807.87265329	     29.46031547	      6.29232003	    -23.03832405
      3.39000000	     38.17179923	      8.28978824	     12.87666369	   -190.80779103	    820.80735532	      0.61625344	     16.22017140	     38.20703033	     41.30974710	     45.00000000	    -45.00000000	   2072.98718942	  -2627.61668949	    146.75016866	   -123.98829629	   1104.80589890	    163.05097986	     12.07409286	      5.65418632	     10.49830615	    -45.00000000	    -40.01640742	     45.00000000	    -36.74995736	  -1702.78964677	  -2085.76674397	     23.08808803	    -23.42225976	   1807.90713075	     28.65042435	      6.55135339	    -23.03520469
      3.40000000	     38.18902162	      8.23985845	     12.88517999	   -188.57909171	    821.20264863	      0.69704316	     16.14276528	     38.13922206	     41.46461545	     45.00000000	    -45.00000000	   2073.03474974	  -2627.57629443	    146.61900902	   -124.57914906	   1104.79443513	    164.01329137	     11.94725755	      5.65116633	     10.52664501	    -45.00000000	    -40.17949213	     45.00000000	    -36.13131446	  -1702.89433296	  -2085.83039944	     23.16495621	    -23.30618832	   1807.89822648	     27.85655565	      6.83997438	    -23.01736908
      3.41000000	     38.21533161	      8.10784133	     12.77309756	   -186.25227542	    821.55057828	      0.77574997	     16.38301109	     38.27365166	     41.74107007	     45.00000000	    -45.00000000	   2073.03335757	  -2627.49937209	    146.46860634	   -125.09843408	   1104.78207344	    165.07382333	     11.82169998	      5.60564978	     10.45158570	    -45.00000000	    -40.49859950	     45.00000000	    -35.19892803	  -1702.96364113	  -2085.87197629	     23.15760756	    -23.09050775	   1807.93046570	     26.95296595	      7.12813104	    -22.98860419
      3.42000000	     38.17820286	      8.25672421	     13.06574246	   -183.82368776	    821.83605488	      0.84957329	     15.71376604	     38.01859568	     41.77409207	     45.00000000	    -45.00000000	   2073.25663864	  -2627.30642661	    146.45362184	   -125.61257264	   1104.74101632	    166.02704457	     11.68753487	      5.60124768	     10.59297001	    -45.00000000	    -40.52371642	     45.00000000	    -34.91659706	  -1703.07848494	  -2085.81155382	     23.19012579	    -23.03697686	   1808.00057867	     26.22985269	      7.44286782	    -22.96190548
      3.43000000	     38.22735357	      7.93155456	     12.70245613	   -181.28897300	    822.04203509	      0.91417047	     16.56878586	     38.44594059	     42.21678690	     45.00000000	    -45.00000000	   2073.17357596	  -2627.36230183	    146.25186268	   -125.93818255	   1104.74806959	    167.29041252	     11.54771569	      5.55584733	     10.28243572	    -45.00000000	    -41.03296623	     45.00000000	    -33.46266635	  -1703.14254849	  -2085.97853752	     23.10598503	    -22.69954452	   1807.99067240	     25.23752692	      7.77476666	    -22.91134424
      3.44000000	     38.25969284	      7.73006259	     12.56449793	   -178.64912771	    822.15270438	      0.96493811	     16.75002712	     38.64704403	     42.39949953	     45.00000000	    -44.46877489	   2073.24124778	  -2627.39633242	    146.23049248	   -126.20098251	   1104.69966871	    168.67204808	     11.41064744	      5.50417612	     10.17915873	    -45.00000000	    -41.33102666	     45.00000000	    -32.31389038	  -1703.20753306	  -2086.08803129	     23.04228561	    -22.57022091	   1808.04526525	     24.26792746	      8.10714611	    -22.83921141
      3.45000000	     38.29444360	      7.57053561	     12.40913331	   -175.90601925	    822.15111038	      0.98767577	     16.81660085	     38.74331956	     42.54849145	     45.00000000	    -43.99830758	   2073.35080731	  -2627.45423575	    146.24174195	   -126.54090064	   1104.66241891	    170.20020641	     11.26189384	      5.47078749	     10.12177025	    -45.00000000	    -41.59678843	     45.00000000	    -31.32387045	  -1703.36155925	  -2086.20270707	     23.06432861	    -22.58315834	   1808.00436157	     23.37071747	      8.45808057	    -22.73545685
      3.46000000	     38.31885717	      7.37301695	     12.27454107	   -173.05780967	    822.02209145	      0.97958253	     16.86945675	     38.88616311	     42.69990330	     45.00000000	    -43.40582211	   2073.44039008	  -2627.53811529	    146.24320718	   -126.78725005	   1104.62355814	    171.82207321	     11.10445409	      5.42094582	     10.05359715	    -45.00000000	    -41.86968834	     45.00000000	    -30.31922363	  -1703.47230645	  -2086.30666798	     23.05712987	    -22.49379036	   1808.02135730	     22.53456563	      8.78906638	    -22.62502764
      3.47000000	     38.37825216	      7.19815918	     12.13347074	   -170.10788496	    821.75363644	      0.93777845	     16.81758438	     39.05164379	     42.83823248	     45.00000000	    -42.80313445	   2073.46053749	  -2627.66347476	    146.17627700	   -126.97597854	   1104.55545548	    173.40886923	     10.94992750	      5.30093485	     10.02972932	    -45.00000000	    -42.14046263	     45.00000000	    -29.50617483	  -1703.65540884	  -2086.46943450	     23.11431161	    -22.32007183	   1808.01435629	     21.85999284	      9.03630063	    -22.48201697
      3.48000000	     38.45208352	      6.99431198	     11.97267757	   -167.05582107	    821.33597239	      0.87051965	     16.73588738	     39.23418862	     42.93925781	     45.00000000	    -42.06013370	   2073.51173242	  -2627.80397436	    146.14800280	   -127.21336671	   1104.49717355	    175.03930287	     10.78219895	      5.16476657	      9.98045051	    -45.00000000	    -42.39077191	     45.00000000	    -28.67082212	  -1703.87146538	  -2086.64153536	     23.17580624	    -22.08313294	   1807.97943100	     21.31759320	      9.29039407	    -22.33890892
      3.49000000	     38.47389795	      6.75371629	     11.85105066	   -163.90920896	    820.76239419	      0.77779296	     16.99916121	     39.35860928	     43.16290083	     45.00000000	    -41.48662213	   2073.73248262	  -2627.95064425	    146.30534876	   -127.73272488	   1104.34298844	    177.13573932	     10.60473944	      5.21859687	      9.85155286	    -45.00000000	    -42.77926522	     45.00000000	    -27.25005636	  -1703.93160494	  -2086.83654105	     23.13112933	    -21.81731902	   1807.91468165	     20.83592213	      9.76151627	    -22.25490232
      3.50000000	     38.55038724	      6.58278112	     11.73451082	   -160.65892757	    820.03264500	      0.67440582	     16.87577902	     39.55546365	     43.24945651	     45.00000000	    -40.87688839	   2073.77301171	  -2628.09673556	    146.19627363	   -128.07701333	   1104.25446421	    179.01286456	     10.42105150	      5.01916598	      9.82430277	    -45.00000000	    -43.02204381	     45.00000000	    -26.60499118	  -1704.17130399	  -2087.01981964	     23.20903230	    -21.52967366	   1807.91076644	     20.50333435	      9.91270106	    -22.08646617
      3.51000000	     38.62080245	      6.39792742	     11.62034088	   -157.30576592	    819.15291724	      0.57101844	     16.87401137	     39.69390815	     43.39886659	     45.00000000	    -40.30837961	   2073.88703454	  -2628.27605390	    146.19766448	   -128.60520198	   1104.13520140	    180.99896485	     10.23264040	      4.90516365	      9.77164337	    -45.00000000	    -43.28821085	     45.00000000	    -25.75160360	  -1704.39419136	  -2087.24722577	     23.29049913	    -21.16173803	   1807.81033845	     20.28397718	     10.18442238	    -21.93870550
      3.52000000	     38.66325966	      6.13114235	     11.49772964	   -153.83774757	    818.13598233	      0.48488974	     17.11169904	     39.81610320	     43.61053175	     45.00000000	    -39.75983640	   2074.14375775	  -2628.47751357	    146.30609054	   -129.26490838	   1103.94542967	    183.33234741	     10.04404727	      4.93057657	      9.69446433	    -45.00000000	    -43.68747266	     45.00000000	    -24.41703705	  -1704.45042591	  -2087.50040884	     23.26891662	    -20.74528667	   1807.74887774	     20.16170326	     10.58415971	    -21.83659912
      3.53000000	     38.73742140	      5.91937034	     11.32339817	   -150.23653773	    816.99689193	      0.42475979	     17.13477933	     40.00510358	     43.75701886	     45.00000000	    -39.12142036	   2074.26818982	  -2628.69105563	    146.28925353	   -129.57801191	   1103.79438876	    185.55817791	      9.84679533	      4.83696980	      9.63797027	    -45.00000000	    -44.02850141	     45.00000000	    -23.44840127	  -1704.65985743	  -2087.75781880	     23.31806841	    -20.38318674	   1807.66173677	     20.14520010	     10.80665650	    -21.68607195
      3.54000000	     38.81726715	      5.57738418	     11.05170473	   -146.48777120	    815.75298814	      0.40717113	     17.32285206	     40.06509810	     44.04471997	     45.00000000	    -38.55383369	   2074.49255277	  -2628.92895988	    146.38737066	   -130.39407140	   1103.62067261	    188.24573105	      9.63732030	      4.86775247	      9.55821291	    -45.00000000	    -44.43097940	     45.00000000	    -22.00469609	  -1704.74190335	  -2088.09315966	     23.35036931	    -19.98548612	   1807.50232514	     20.25033879	     11.20331084	    -21.56899192
